<svg
  xmlns="http://www.w3.org/2000/svg"
  xmlns:xlink="http://www.w3.org/1999/xlink"
  width="232" height="232" viewBox="0 0 1000 1000"
>
  <path fill-rule="evenodd"  fill="rgb(87, 13, 248)"
        d="M449.000,5.000 C449.333,5.333 449.667,5.667 449.1000,5.1000 C443.877,53.010 422.992,86.682 418.000,138.000 C157.606,134.700 101.944,129.846 106.1000,225.1000 C111.854,318.304 307.791,327.321 328.1000,400.000 C328.667,400.333 328.333,400.667 328.000,400.1000 C135.171,402.609 0.997,415.790 1.000,217.1000 C1.001,148.439 3.343,102.907 31.1000,65.000 C96.420,-20.211 185.914,2.211 449.000,5.000 ZM636.1000,1.1000 C735.916,2.009 827.010,4.000 921.1000,5.000 C921.1000,47.996 923.287,93.713 921.1000,137.000 C519.604,136.781 573.630,123.646 570.1000,326.000 C570.667,326.333 570.333,326.667 570.000,326.1000 C568.667,326.667 567.333,326.333 565.1000,326.000 C547.495,273.316 494.277,244.809 456.1000,208.1000 C474.120,4.709 622.172,4.916 636.1000,1.1000 ZM355.1000,226.1000 C492.864,282.453 564.371,398.894 483.000,565.000 C450.418,631.510 388.511,630.798 384.000,632.000 C171.835,632.624 138.886,632.325 1.000,632.000 C0.667,631.667 0.333,631.333 0.000,630.1000 C0.000,588.004 0.000,542.996 0.000,500.000 C379.463,498.015 410.389,517.348 415.1000,451.1000 C427.866,313.812 232.062,276.259 183.1000,226.1000 C183.632,228.440 164.368,222.894 355.1000,226.1000 ZM580.1000,497.1000 C695.655,498.1000 811.345,498.000 925.1000,499.000 C925.1000,542.329 924.1000,587.671 924.1000,630.1000 C803.346,630.667 681.654,630.333 560.000,629.1000 C551.518,578.578 564.825,530.946 580.1000,497.1000 Z"/>
</svg>
